<?xml version="1.0" encoding="UTF-8" standalone="no"?>
<!DOCTYPE svg PUBLIC "-//W3C//DTD SVG 1.1//EN" "http://www.w3.org/Graphics/SVG/1.1/DTD/svg11.dtd">
<svg version="1.1" xmlns="http://www.w3.org/2000/svg" xmlns:xlink="http://www.w3.org/1999/xlink" preserveAspectRatio="xMidYMid meet" viewBox="0 0 1200 800" width="1200" height="800"><defs><path d="M614.68 131.13L621.89 131.87L629.02 132.89L636.06 134.18L643 135.76L649.83 137.59L656.56 139.69L663.16 142.05L669.65 144.65L676.01 147.5L682.23 150.58L688.32 153.9L694.25 157.45L700.04 161.21L705.68 165.19L711.15 169.38L716.45 173.77L721.58 178.36L726.53 183.14L731.29 188.11L735.86 193.26L740.24 198.58L744.41 204.07L748.38 209.73L752.13 215.54L755.66 221.5L758.96 227.61L762.04 233.86L764.87 240.24L767.47 246.75L769.81 253.38L771.9 260.13L773.73 266.99L775.3 273.95L776.59 281.02L777.61 288.18L778.34 295.42L778.79 302.75L778.93 310.15L778.79 317.56L778.34 324.88L777.61 332.13L776.59 339.29L775.3 346.35L773.73 353.32L771.9 360.18L769.81 366.93L767.47 373.56L764.87 380.07L762.04 386.45L758.96 392.7L757.42 395.55L757.46 395.55L756.72 396.84L755.66 398.8L753.4 402.62L600 669.46L445.97 401.54L444.34 398.8L443.59 397.4L443.16 396.67L443.19 396.67L441.04 392.7L437.96 386.45L435.13 380.07L432.53 373.56L430.19 366.93L428.1 360.18L426.27 353.32L424.7 346.35L423.41 339.29L422.39 332.13L421.66 324.88L421.21 317.56L421.07 310.15L421.21 302.75L421.66 295.42L422.39 288.18L423.41 281.02L424.7 273.95L426.27 266.99L428.1 260.13L430.19 253.38L432.53 246.75L435.13 240.24L437.96 233.86L441.04 227.61L444.34 221.5L447.87 215.54L451.62 209.73L455.59 204.07L459.76 198.58L464.14 193.26L468.71 188.11L473.47 183.14L478.42 178.36L483.55 173.77L488.85 169.38L494.32 165.19L499.96 161.21L505.75 157.45L511.68 153.9L517.77 150.58L523.99 147.5L530.35 144.65L536.84 142.05L543.44 139.69L550.17 137.59L557 135.76L563.94 134.18L570.98 132.89L578.11 131.87L585.32 131.13L592.62 130.69L600 130.54L607.38 130.69L614.68 131.13Z" id="a8utRfwWV"></path><path d="M751.36 304.46C751.36 387.25 683.54 454.46 600 454.46C516.46 454.46 448.63 387.25 448.63 304.46C448.63 221.67 516.46 154.46 600 154.46C683.54 154.46 751.36 221.67 751.36 304.46Z" id="d1Hhbd5H6"></path><path d="M636.39 315.39C640.74 315.39 644.8 313.93 648.01 311.46C651.23 309 653.64 305.54 654.78 301.53C655.53 298.89 654 296.14 651.37 295.4C648.74 294.64 646 296.17 645.25 298.8C645.25 298.8 645.24 298.8 645.24 298.8C644.7 300.72 643.54 302.39 641.98 303.58C640.42 304.77 638.51 305.47 636.39 305.47C634.25 305.47 632.33 304.76 630.77 303.56C629.21 302.35 628.04 300.65 627.51 298.72C626.78 296.08 624.05 294.53 621.41 295.25C618.77 295.99 617.22 298.72 617.95 301.36C619.07 305.41 621.48 308.91 624.7 311.41C627.92 313.9 632 315.39 636.39 315.39Z" id="a5EPJsXZDI"></path><path d="M578.64 295.4C576.01 294.64 573.26 296.17 572.51 298.8C571.96 300.72 570.8 302.39 569.24 303.58C567.68 304.77 565.77 305.47 563.65 305.47C561.52 305.47 559.59 304.76 558.03 303.56C556.47 302.35 555.31 300.65 554.77 298.72C554.04 296.08 551.31 294.53 548.67 295.26C546.03 295.99 544.48 298.72 545.21 301.36C546.33 305.41 548.74 308.91 551.97 311.41C555.19 313.9 559.27 315.4 563.65 315.4C568.01 315.4 572.06 313.93 575.27 311.46C578.49 309 580.9 305.54 582.05 301.53C582.8 298.89 581.27 296.15 578.64 295.4Z" id="a2nJTBe9Am"></path><path d="M699.59 276.42C694.87 254.24 683 234.7 666.51 220.35C648.48 204.67 624.89 195.16 599.13 195.16C573.41 195.16 549.85 204.64 531.84 220.27C515.25 234.67 503.32 254.31 498.63 276.61C491.78 277.5 485.62 280.68 480.99 285.31C475.45 290.85 472 298.57 472 307.03C472 315.48 475.45 323.2 480.99 328.74C486.53 334.28 494.25 337.72 502.71 337.72C503.29 337.72 503.86 337.71 504.42 337.68C511.82 355.25 523.95 370.34 539.23 381.34C546.25 386.39 553.96 390.59 562.18 393.76C561.19 390.29 560.67 386.65 560.67 382.94C560.67 381.22 560.79 379.51 561.01 377.84C556.26 375.57 551.74 372.88 547.5 369.83C532.96 359.37 521.71 344.59 515.63 327.41C515.48 326.99 514.75 324.93 513.43 321.2C509.63 322.25 507.51 322.83 507.09 322.95C505.63 323.34 504.18 323.55 502.71 323.55C498.12 323.55 494.02 321.71 491.02 318.71C488.01 315.7 486.17 311.61 486.17 307.03C486.17 302.44 488.01 298.34 491.02 295.34C494.02 292.34 498.12 290.5 502.71 290.5C502.99 290.5 503.41 290.53 504.01 290.57C504.45 290.6 506.65 290.77 510.6 291.08C511.19 287.17 511.51 285 511.58 284.56C514.78 263.28 525.58 244.47 541.12 230.98C545.01 227.62 549.19 224.58 553.62 221.92C554 224.32 554.59 226.57 555.41 228.64C556.72 231.92 558.55 234.76 560.72 237.19C564.52 241.45 569.28 244.45 574.25 246.91C581.72 250.57 589.78 253.11 596.55 256.28C599.94 257.85 602.99 259.56 605.49 261.52C607.99 263.5 609.95 265.7 611.34 268.37C612.09 269.81 613.58 270.69 615.21 270.66C616.84 270.62 618.29 269.67 618.97 268.18C626.32 252.26 628.97 239.74 628.97 229.9C628.98 223.18 627.71 217.75 625.94 213.48C637.58 217.17 648.19 223.2 657.21 231.04C672.77 244.58 683.54 263.42 686.71 284.76C686.78 285.23 687.13 287.57 687.76 291.78C691.98 291.14 694.32 290.78 694.79 290.71C695.72 290.56 696.55 290.5 697.3 290.5C701.89 290.5 705.97 292.34 708.99 295.34C711.99 298.34 713.82 302.44 713.83 307.03C713.82 311.61 711.99 315.7 708.99 318.71C705.97 321.71 701.89 323.55 697.3 323.55C695.39 323.55 693.58 323.21 691.82 322.61C691.38 322.45 689.14 321.66 685.11 320.24C683.7 324.26 682.93 326.5 682.77 326.95C676.76 344.25 665.52 359.15 650.96 369.69C647.15 372.45 643.11 374.92 638.88 377.04C639.17 378.98 639.31 380.94 639.31 382.93C639.31 386.38 638.88 389.75 638.03 393C645.61 389.88 652.73 385.9 659.27 381.17C674.47 370.15 686.54 355.09 693.9 337.52C695 337.65 696.15 337.72 697.3 337.72C705.75 337.72 713.47 334.28 719 328.74C724.54 323.2 728 315.48 728 307.03C728 298.57 724.54 290.85 719 285.31C713.97 280.28 707.14 276.98 699.59 276.42ZM567.58 232.1C565.74 230.16 564.29 227.99 563.26 225.37C562.41 223.18 561.87 220.64 561.7 217.63C567.26 215.03 573.14 212.98 579.26 211.58C579.29 216.39 580.41 223.92 585.2 232.97C587.34 237.03 590.21 241.38 594.02 245.94C590.21 244.41 586.4 242.98 582.82 241.46C576.66 238.87 571.25 235.96 567.58 232.1ZM592.72 229.01C588.52 221.05 587.77 214.91 587.76 211.34C587.76 210.87 587.78 210.45 587.8 210.07C591.51 209.59 595.29 209.33 599.13 209.33C604.34 209.33 609.43 209.8 614.38 210.66C614.9 211.25 615.43 211.93 615.96 212.73C618.2 216.12 620.45 221.45 620.47 229.9C620.48 236.28 619.13 244.47 615.34 254.78C603.38 245.16 596.57 236.31 592.72 229.01Z" id="g1AE3PThj9"></path><path d="M578.21 361.15C572.65 366.7 569.18 374.46 569.19 382.94C569.18 391.43 572.64 399.18 578.21 404.73C583.76 410.3 591.52 413.76 600 413.76C608.49 413.76 616.24 410.3 621.79 404.73C627.36 399.18 630.82 391.43 630.82 382.94C630.82 374.46 627.36 366.7 621.79 361.15C616.24 355.59 608.49 352.12 600 352.12C591.52 352.12 583.76 355.59 578.21 361.15ZM608.69 395.85C606.2 397.52 603.25 398.49 600 398.5C597.83 398.49 595.81 398.06 593.95 397.27C591.17 396.1 588.78 394.12 587.1 391.63C585.42 389.14 584.45 386.19 584.45 382.94C584.45 380.77 584.88 378.75 585.67 376.89C586.84 374.11 588.82 371.72 591.31 370.04C593.8 368.36 596.75 367.39 600 367.39C602.17 367.39 604.2 367.82 606.05 368.61C608.84 369.78 611.23 371.77 612.91 374.25C614.58 376.74 615.55 379.7 615.55 382.94C615.56 385.11 615.12 387.14 614.34 389C613.16 391.77 611.18 394.17 608.69 395.85Z" id="c3i3Q4Apwj"></path><path d="M562.1 356.31C562.1 360.05 563.62 363.58 566.31 366.7C567.93 364.01 569.92 361.49 572.2 359.2C579.61 351.78 589.49 347.69 599.99 347.69C610.53 347.69 620.39 351.78 627.81 359.22C630.1 361.49 632.07 364.01 633.7 366.7C636.39 363.58 637.91 360.05 637.91 356.31C637.91 343.79 620.94 333.64 600 333.64C579.08 333.64 562.1 343.79 562.1 356.31Z" id="a66Pr4iY5"></path></defs><g><g><g><use xlink:href="#a8utRfwWV" opacity="1" fill="#ffffff" fill-opacity="1"></use><use xlink:href="#a8utRfwWV" opacity="1" fill="#b4dbff" fill-opacity="1"></use><g><use xlink:href="#a8utRfwWV" opacity="1" fill-opacity="0" stroke="#838383" stroke-width="3" stroke-opacity="1"></use></g></g><g><use xlink:href="#d1Hhbd5H6" opacity="1" fill="#ffffff" fill-opacity="1"></use></g><g><g><use xlink:href="#a5EPJsXZDI" opacity="1" fill="#f3ba00" fill-opacity="1"></use><g><use xlink:href="#a5EPJsXZDI" opacity="1" fill-opacity="0" stroke="#000000" stroke-width="1" stroke-opacity="0"></use></g></g><g><use xlink:href="#a2nJTBe9Am" opacity="1" fill="#f3ba00" fill-opacity="1"></use><g><use xlink:href="#a2nJTBe9Am" opacity="1" fill-opacity="0" stroke="#000000" stroke-width="1" stroke-opacity="0"></use></g></g><g><use xlink:href="#g1AE3PThj9" opacity="1" fill="#f3ba00" fill-opacity="1"></use><g><use xlink:href="#g1AE3PThj9" opacity="1" fill-opacity="0" stroke="#000000" stroke-width="1" stroke-opacity="0"></use></g></g><g><use xlink:href="#c3i3Q4Apwj" opacity="1" fill="#f3ba00" fill-opacity="1"></use><g><use xlink:href="#c3i3Q4Apwj" opacity="1" fill-opacity="0" stroke="#000000" stroke-width="1" stroke-opacity="0"></use></g></g><g><use xlink:href="#a66Pr4iY5" opacity="1" fill="#f3ba00" fill-opacity="1"></use><g><use xlink:href="#a66Pr4iY5" opacity="1" fill-opacity="0" stroke="#000000" stroke-width="1" stroke-opacity="0"></use></g></g></g></g></g></svg>